<svg xmlns="http://www.w3.org/2000/svg" version="1.1" style="" xml:space="preserve" width="529" height="632"><rect id="backgroundrect" width="100%" height="100%" x="0" y="0" fill="none" stroke="none"/>
<style type="text/css">
	.st0{fill:#EC1E25;}
	.st1{fill:#0A0B0B;}
	.st2{fill:#F9F9F9;}
	.st3{fill:#FDD407;}
	.st4{fill:#F8D131;}
</style>

<g class="currentLayer" style=""><title>Layer 1</title><g id="svg_1" class="selected" stroke-opacity="1" stroke="#222222">
	<path class="st0" d="M264.65999999999997,632.1200103759766 C209.26,632.1200103759766 0,393.99001037597657 0,253.95001037597655 c0,-140.03 118.73,-253.95 264.66,-253.95 c145.94,0 264.67,113.92 264.67,253.95 C529.33,393.99001037597657 320.07000000000005,632.1200103759766 264.65999999999997,632.1200103759766 zM264.65999999999997,47.61001037597657 c-118.58,0 -215.04,92.56 -215.04,206.34 c0,113.78 96.47,206.35 215.04,206.35 c118.58,0 215.04,-92.57 215.04,-206.35 C479.71000000000004,140.18001037597656 383.24,47.61001037597657 264.65999999999997,47.61001037597657 z" id="svg_2" stroke="#222222"/>
	<g id="svg_3" stroke="#222222">
		<path class="st1" d="M174.68,338.6100103759766 c0,10.41 -8.79,18.84 -19.63,18.84 h-22.33 c-10.85,0 -19.63,-8.43 -19.63,-18.84 v-53.14 c0,-10.41 8.79,-18.84 19.63,-18.84 h22.33 c10.84,0 19.63,8.44 19.63,18.84 V338.6100103759766 z" id="svg_4" stroke="#222222"/>
		<path d="M354.65,338.6100103759766 c0,10.41 8.79,18.84 19.63,18.84 h22.33 c10.84,0 19.63,-8.43 19.63,-18.84 v-53.14 c0,-10.41 -8.79,-18.84 -19.63,-18.84 h-22.33 c-10.84,0 -19.63,8.44 -19.63,18.84 V338.6100103759766 z" id="svg_5" stroke="#222222"/>
		<path class="st0" d="M448.39,215.06001037597656 c0,-17.31 -38.72,-8.85 -38.72,-8.85 v14.03 l-7.8,2.46 c-0.30000000000000004,-9.18 -2.84,-36.33 -22.21,-55.52 c-13.15,-13.02 -30.88,-19.62 -52.69,-19.62 h-62.3 h-62.29 c-21.82,0 -39.54,6.6 -52.7,19.62 c-19.38,19.19 -21.93,46.33 -22.21,55.52 l-7.8,-2.46 v-14.03 c0,0 -38.73,-8.45 -38.73,8.85 c0,17.3 33.74,15.39 33.74,15.39 l1.55,4.52 c-5.12,6.35 -10.06,16.67 -10.06,32.99 c0,18.85 0,31.9 0,31.9 s-17.99,31.19 158.5,31.19 c176.5,0 158.5,-31.19 158.5,-31.19 s0,-13.05 0,-31.9 c0,-16.32 -4.94,-26.64 -10.06,-32.99 l1.55,-4.52 C414.65999999999997,230.45001037597655 448.39,232.36001037597657 448.39,215.06001037597656 z" id="svg_6" stroke="#222222"/>
		<path class="st2" d="M326.96000000000004,161.69001037597656 c-62.3,0 -62.3,0 -62.3,0 s0,0 -62.29,0 c-62.29,0 -60.22,63.76 -60.22,63.76 h122.51 h122.51 C387.17999999999995,225.45001037597655 389.25,161.69001037597656 326.96000000000004,161.69001037597656 z" id="svg_7" stroke="#222222"/>
		<path class="st3" d="M333.29999999999995,291.4700103759766 c-0.7100000000000001,10.19 48.22,20.38 60.69,12.39 c12.48,-7.98 13.22,-34.06 0,-41.57 C380.77,254.77001037597654 334.03,280.90001037597654 333.29999999999995,291.4700103759766 z" id="svg_8" stroke="#222222"/>
		<path class="st4" d="M196.04000000000002,291.4700103759766 c0.7100000000000001,10.19 -48.22,20.38 -60.7,12.39 c-12.48,-7.98 -13.22,-34.06 0,-41.57 C148.57,254.77001037597654 195.3,280.90001037597654 196.04000000000002,291.4700103759766 z" id="svg_9" stroke="#222222"/>
	</g>
</g></g></svg>