<?xml version="1.0" standalone="no"?>
<!DOCTYPE svg PUBLIC "-//W3C//DTD SVG 20010904//EN"
        "http://www.w3.org/TR/2001/REC-SVG-20010904/DTD/svg10.dtd">
<svg version="1.0" xmlns="http://www.w3.org/2000/svg"
     width="521.000000pt" height="497.000000pt" viewBox="0 0 521.000000 497.000000"
     preserveAspectRatio="xMidYMid meet">

    <g transform="translate(0.000000,497.000000) scale(0.100000,-0.100000)"
       fill="#000000" stroke="none">
        <path d="M2085 4625 c-55 -7 -129 -14 -165 -14 -36 -1 -81 -6 -101 -11 -19 -5
-73 -14 -120 -20 -297 -35 -416 -92 -576 -277 -35 -40 -77 -121 -116 -228 -8
-22 -22 -59 -31 -82 -9 -24 -23 -62 -32 -85 -8 -24 -22 -56 -30 -71 -8 -16
-14 -35 -14 -44 0 -8 -6 -27 -14 -41 -8 -15 -21 -47 -31 -72 -9 -25 -22 -56
-29 -70 l-12 -25 -191 -5 c-135 -4 -196 -9 -205 -17 -6 -7 -19 -13 -29 -13
-24 0 -113 -88 -137 -138 -30 -59 -30 -165 0 -224 24 -50 113 -138 137 -138
10 0 22 -5 29 -12 6 -6 50 -14 97 -16 82 -4 85 -6 79 -26 -3 -11 -10 -25 -15
-30 -5 -6 -9 -17 -9 -25 -1 -9 -9 -34 -20 -56 -11 -22 -19 -46 -20 -53 0 -7
-4 -20 -9 -30 -24 -44 -52 -158 -72 -292 -5 -36 -14 -84 -19 -108 -6 -25 -10
-313 -10 -698 0 -585 2 -661 17 -707 22 -68 37 -93 94 -147 61 -59 66 -63 119
-83 61 -23 180 -23 240 1 100 38 171 112 212 221 13 34 18 76 18 159 l0 112
63 0 c34 0 78 -5 97 -10 19 -6 82 -13 140 -16 58 -3 128 -10 155 -15 28 -5
136 -14 240 -19 105 -6 251 -15 325 -20 175 -12 875 -12 1050 0 74 5 221 14
325 20 105 5 213 14 240 19 28 5 97 12 155 15 58 3 121 10 140 16 19 5 63 10
97 10 l63 0 0 -124 c0 -69 4 -127 9 -131 5 -3 12 -18 16 -33 15 -67 125 -181
189 -198 14 -3 29 -10 32 -15 3 -5 46 -9 95 -9 80 0 96 3 154 31 93 46 185
153 185 216 0 12 5 25 10 28 13 8 14 1299 0 1374 -5 31 -14 83 -19 116 -17
106 -33 180 -41 190 -4 6 -11 29 -15 52 -4 24 -11 45 -16 49 -5 3 -9 13 -9 22
-1 9 -9 35 -20 57 -11 22 -19 47 -20 56 0 8 -4 19 -9 25 -5 5 -12 19 -15 30
-6 20 -3 22 79 26 47 2 91 10 97 16 7 7 20 12 29 12 25 0 110 86 137 138 30
59 31 164 0 224 -27 55 -105 129 -154 147 -26 10 -102 16 -224 20 -184 6 -184
6 -196 31 -24 47 -44 98 -44 108 0 6 -6 23 -14 39 -8 15 -22 47 -30 71 -9 23
-23 60 -31 82 -8 22 -22 59 -31 83 -8 23 -22 55 -30 70 -8 16 -14 35 -14 44 0
13 -10 35 -41 93 -4 8 -17 33 -28 55 -27 53 -162 183 -231 222 -77 44 -229 88
-345 99 -22 3 -80 11 -130 19 -199 31 -358 39 -850 41 -360 1 -528 -2 -600
-11z m1115 -384 c107 -6 211 -15 230 -21 19 -5 62 -10 95 -11 33 0 83 -4 110
-9 28 -6 87 -14 133 -19 92 -11 129 -31 166 -90 13 -20 27 -52 31 -71 4 -19
11 -41 15 -50 4 -8 18 -49 30 -90 12 -41 25 -82 29 -90 5 -9 12 -31 16 -50 4
-19 11 -39 15 -45 4 -5 18 -44 30 -85 13 -41 27 -79 31 -85 4 -5 12 -26 17
-45 6 -19 20 -60 32 -90 36 -93 50 -134 50 -148 0 -37 -67 -68 -171 -79 -45
-5 -46 -4 -52 26 -9 42 -66 130 -108 165 -72 61 -108 70 -284 71 -182 0 -224
-9 -297 -64 -74 -57 -126 -153 -143 -263 -6 -40 -26 -54 -54 -36 -14 8 -20 29
-25 77 -16 156 -96 278 -219 334 -55 25 -371 25 -425 0 -59 -27 -108 -69 -146
-127 -45 -67 -64 -124 -72 -208 -6 -55 -11 -68 -29 -78 -31 -16 -43 -7 -50 38
-16 107 -64 195 -140 258 -72 61 -108 69 -295 69 -183 -1 -219 -10 -293 -75
-44 -38 -107 -139 -107 -170 0 -20 -4 -22 -47 -17 -103 10 -173 41 -173 77 0
18 32 114 41 125 5 5 9 16 9 25 0 8 7 28 15 44 8 15 15 33 15 40 0 6 6 23 14
38 8 15 17 41 21 59 4 19 11 40 16 49 5 8 25 67 44 130 20 63 40 122 45 130 4
9 11 31 15 50 4 19 11 40 15 45 4 6 11 26 15 45 4 19 18 51 31 71 36 58 75 80
157 89 147 17 264 31 332 41 39 6 164 14 279 20 116 5 212 12 215 15 9 8 596
-2 821 -15z m-2003 -1632 c63 -30 116 -96 136 -168 16 -55 16 -65 1 -122 -9
-34 -21 -68 -28 -75 -6 -6 -18 -21 -26 -33 -8 -12 -37 -36 -65 -54 -45 -28
-58 -32 -125 -32 -58 0 -84 5 -117 23 -77 40 -142 142 -143 222 0 13 6 49 13
79 14 61 67 124 133 160 55 28 162 29 221 0z m3155 -1 c113 -59 164 -165 138
-287 -14 -69 -69 -139 -134 -173 -54 -29 -164 -31 -219 -5 -67 32 -122 98
-142 172 -16 62 -16 67 1 126 21 70 74 137 132 167 56 29 168 29 224 0z
m-2636 -364 c22 -8 53 -22 71 -30 17 -8 35 -14 41 -14 5 0 23 -7 38 -15 16 -8
36 -15 44 -15 9 0 20 -4 25 -9 6 -6 28 -14 50 -20 106 -27 131 -34 148 -42 9
-5 39 -12 65 -16 26 -3 55 -10 66 -15 10 -6 50 -14 90 -18 39 -5 105 -14 146
-20 85 -14 328 -8 400 8 25 6 74 16 110 22 109 18 164 29 185 38 19 9 53 19
150 43 22 6 44 14 49 20 6 5 17 9 25 9 9 0 29 7 45 15 15 8 33 15 38 15 6 0
24 6 41 14 113 52 147 58 147 26 0 -33 -57 -100 -152 -179 -48 -40 -88 -77
-88 -82 0 -5 -4 -9 -9 -9 -9 0 -191 -117 -218 -140 -7 -5 -16 -10 -20 -10 -4
0 -37 -14 -73 -31 -186 -90 -285 -114 -465 -114 -180 0 -284 25 -465 113 -36
18 -69 32 -73 32 -4 0 -13 5 -20 10 -24 21 -210 140 -219 140 -4 0 -8 3 -8 8
0 4 -40 40 -88 81 -167 142 -206 238 -76 185z"/>
        <path d="M2535 4135 c-66 -31 -106 -70 -146 -141 -31 -53 -33 -65 -33 -144 0
-79 2 -91 33 -144 63 -112 152 -166 275 -166 122 0 225 64 282 175 24 49 28
68 27 138 0 72 -4 89 -31 139 -42 77 -75 107 -162 150 -55 27 -182 24 -245 -7z"/>
        <path d="M1633 4081 c-91 -34 -155 -92 -196 -179 -30 -64 -29 -177 1 -244 26
-57 91 -125 152 -157 38 -21 59 -24 140 -24 85 0 100 3 142 27 55 32 109 89
139 148 32 62 32 194 1 259 -70 145 -241 222 -379 170z"/>
        <path d="M3545 4094 c-53 -13 -150 -72 -179 -109 -57 -73 -70 -109 -70 -198
-1 -100 18 -150 83 -219 67 -72 117 -93 226 -92 104 1 152 20 221 90 61 61 86
123 87 215 1 90 -21 146 -84 214 -68 74 -200 119 -284 99z"/>
        <path d="M3002 413 l3 -238 53 -3 52 -3 0 106 c0 59 4 114 10 124 15 28 61 44
93 32 38 -15 47 -47 47 -162 l0 -99 50 0 50 0 0 128 c0 139 -10 172 -66 209
-36 23 -122 23 -157 0 l-27 -17 0 80 0 80 -55 0 -55 0 2 -237z"/>
        <path d="M4260 410 l0 -240 50 0 50 0 0 240 0 240 -50 0 -50 0 0 -240z"/>
        <path d="M510 400 l0 -230 175 0 175 0 0 45 0 45 -120 0 -120 0 0 50 0 50 100
0 100 0 0 45 0 45 -100 0 -100 0 0 45 0 45 115 0 115 0 0 45 0 45 -170 0 -170
0 0 -230z"/>
        <path d="M2230 622 c0 -4 33 -106 73 -227 l74 -220 55 -3 56 -3 48 146 c27 80
51 145 54 145 3 0 25 -64 50 -143 l46 -142 58 0 59 0 72 223 c54 166 70 225
60 228 -7 3 -30 4 -51 2 l-37 -3 -52 -155 -52 -155 -51 155 -50 155 -48 0 -49
0 -50 -147 c-27 -82 -53 -148 -56 -148 -3 0 -27 68 -53 150 l-47 150 -55 0
c-30 0 -54 -3 -54 -8z"/>
        <path d="M1025 524 c-31 -8 -105 -35 -105 -39 0 -3 7 -20 17 -39 16 -34 17
-35 44 -20 38 19 113 18 133 -2 32 -32 20 -44 -43 -44 -106 0 -161 -36 -161
-104 1 -44 11 -62 50 -89 31 -21 119 -23 146 -2 25 19 34 19 34 -1 0 -12 10
-14 48 -12 l47 3 0 120 c0 137 -11 175 -59 204 -32 20 -115 34 -151 25z m105
-228 c0 -44 -77 -75 -108 -44 -34 34 -1 66 71 67 33 1 37 -2 37 -23z"/>
        <path d="M1405 521 c-69 -18 -105 -54 -105 -107 0 -60 42 -92 145 -109 51 -9
69 -23 54 -41 -15 -19 -91 -18 -136 1 -20 8 -37 14 -38 13 -1 -2 -10 -18 -20
-37 -14 -28 -15 -35 -3 -42 46 -30 176 -39 231 -15 49 20 72 52 72 98 0 53
-34 82 -112 98 -87 17 -94 20 -91 38 5 27 61 37 113 20 l46 -16 14 29 c20 38
19 48 -8 58 -36 14 -129 21 -162 12z"/>
        <path d="M3545 515 c-139 -49 -162 -240 -39 -316 54 -33 157 -38 211 -10 23
11 44 25 47 29 3 5 -7 21 -23 36 -27 26 -28 26 -66 10 -23 -9 -51 -13 -69 -10
-29 6 -76 41 -76 58 0 4 59 8 130 8 l130 0 0 35 c0 76 -53 144 -128 165 -48
13 -68 12 -117 -5z m128 -96 c9 -12 17 -25 17 -30 0 -5 -36 -9 -80 -9 -44 0
-80 3 -80 6 0 16 24 46 43 54 32 14 79 3 100 -21z"/>
        <path d="M3947 515 c-118 -41 -157 -193 -74 -284 52 -56 172 -79 243 -45 51
24 55 35 29 68 l-23 29 -37 -18 c-43 -20 -97 -15 -126 11 -42 38 -26 44 105
44 137 0 140 2 127 62 -16 70 -54 113 -120 135 -48 15 -78 15 -124 -2z m121
-87 c7 -6 18 -20 23 -30 9 -17 4 -18 -77 -18 l-86 0 14 23 c30 44 88 56 126
25z"/>
        <path d="M4520 519 c-58 -17 -90 -55 -90 -107 0 -60 28 -83 122 -102 61 -13
73 -18 73 -35 0 -16 -8 -21 -43 -23 -24 -2 -64 4 -88 12 l-45 15 -17 -35 c-14
-31 -14 -36 -2 -45 53 -33 174 -38 237 -10 48 22 63 45 63 96 0 45 -36 82 -89
91 -85 14 -111 24 -111 44 0 28 57 36 113 17 l44 -15 17 35 c9 20 16 37 14 38
-32 26 -145 40 -198 24z"/>
        <path d="M1610 515 c0 -4 32 -80 70 -170 39 -90 70 -170 70 -177 0 -34 -50
-49 -91 -28 -16 9 -21 6 -36 -26 -17 -34 -17 -36 1 -49 55 -40 159 -20 195 39
17 27 181 401 181 412 0 2 -22 4 -49 4 l-49 0 -42 -102 c-23 -57 -45 -106 -49
-111 -4 -4 -27 41 -52 100 l-44 108 -53 3 c-28 2 -52 0 -52 -3z"/>
        <path d="M2010 360 l0 -40 95 0 95 0 0 40 0 40 -95 0 -95 0 0 -40z"/>
    </g>
</svg>
